# Blender v2.81 (sub 16) OBJ File: 'ball head.blend'
# www.blender.org
mtllib guy.mtl
o Cube
v 0.802792 4.622377 -0.802792
v 0.754943 2.714198 -0.754943
v 0.802792 4.622377 0.802792
v 0.754943 2.714198 0.754943
v -0.802792 4.622377 -0.802792
v -0.754943 2.714198 -0.754943
v -0.802792 4.622377 0.802792
v -0.754943 2.714198 0.754943
v -0.852762 2.553060 -0.284254
v -0.852762 2.553060 0.284254
v 0.333333 2.553060 -1.000000
v -0.333333 2.553060 -1.000000
v -0.333333 2.553060 1.000000
v 0.333333 2.553060 1.000000
v 0.852762 2.553060 0.284254
v 0.852762 2.553060 -0.284254
v -0.333333 2.065029 -0.333333
v -0.333333 2.065029 0.333333
v 0.333333 2.065029 -0.333333
v 0.333333 2.065029 0.333333
v -0.864571 0.125395 -0.864571
v -0.864571 0.125395 0.864571
v 0.864571 0.125395 -0.864571
v 0.864571 0.125395 0.864571
v 0.333333 4.095240 1.000000
v -0.333333 4.095240 1.000000
v 1.000000 4.095240 -0.333333
v 1.000000 4.095240 0.333333
v -1.000000 4.095240 0.333333
v -1.000000 4.095240 -0.333333
v -0.333333 4.095240 -1.000000
v 0.333333 4.095240 -1.000000
v 0.669231 3.566903 -0.669231
v 0.669231 3.566903 0.669231
v -0.669231 3.566903 -0.669231
v -0.669231 3.566903 0.669231
v -0.333333 2.587221 1.000000
v 0.333333 2.587221 1.000000
v 0.333333 2.716035 0.574178
v -0.333333 2.716035 0.574178
v 0.000000 4.969816 -0.678823
v 0.000000 4.658369 -0.886924
v 0.000000 3.612171 -0.678823
v -0.000000 5.250993 -0.000000
v 0.183688 5.177917 -0.318157
v 0.339411 4.969816 -0.587878
v 0.443462 4.658369 -0.768099
v 0.480000 4.290993 -0.831384
v 0.443462 3.923617 -0.768099
v 0.339411 3.612171 -0.587878
v 0.183688 3.404069 -0.318157
v 0.000000 3.330993 -0.000000
v 0.318157 5.177917 -0.183688
v 0.587877 4.969816 -0.339411
v 0.768099 4.658369 -0.443462
v 0.831384 4.290993 -0.480000
v 0.768099 3.923617 -0.443462
v 0.587877 3.612171 -0.339411
v 0.318157 3.404069 -0.183688
v 0.367376 5.177917 -0.000000
v 0.678822 4.969816 -0.000000
v 0.886924 4.658369 -0.000000
v 0.960000 4.290993 -0.000000
v 0.886924 3.923617 -0.000000
v 0.678822 3.612171 -0.000000
v 0.367376 3.404069 -0.000000
v 0.318157 5.177917 0.183688
v 0.587877 4.969816 0.339411
v 0.768099 4.658369 0.443462
v 0.831384 4.290993 0.480000
v 0.768099 3.923617 0.443462
v 0.587877 3.612171 0.339411
v 0.318157 3.404069 0.183688
v 0.183688 5.177917 0.318157
v 0.339411 4.969816 0.587877
v 0.443462 4.658369 0.768099
v 0.480000 4.290993 0.831384
v 0.443462 3.923617 0.768099
v 0.339411 3.612171 0.587877
v 0.183688 3.404069 0.318157
v -0.000000 5.177917 0.367376
v -0.000000 4.969816 0.678822
v -0.000000 4.658369 0.886924
v -0.000000 4.290993 0.960000
v -0.000000 3.923617 0.886924
v -0.000000 3.612171 0.678822
v 0.000000 3.404069 0.367376
v -0.183688 5.177917 0.318157
v -0.339411 4.969816 0.587877
v -0.443462 4.658369 0.768099
v -0.480000 4.290993 0.831384
v -0.443462 3.923617 0.768099
v -0.339411 3.612171 0.587877
v -0.183688 3.404069 0.318157
v -0.318157 5.177917 0.183688
v -0.587878 4.969816 0.339411
v -0.768099 4.658369 0.443462
v -0.831384 4.290993 0.480000
v -0.768099 3.923617 0.443462
v -0.587878 3.612171 0.339411
v -0.318157 3.404069 0.183688
v -0.367376 5.177917 -0.000000
v -0.678822 4.969816 -0.000000
v -0.886924 4.658369 -0.000000
v -0.960000 4.290993 -0.000000
v -0.886924 3.923617 -0.000000
v -0.678822 3.612171 -0.000000
v -0.367376 3.404069 -0.000000
v -0.318157 5.177917 -0.183688
v -0.587877 4.969816 -0.339411
v -0.768099 4.658369 -0.443462
v -0.831384 4.290993 -0.480000
v -0.768099 3.923617 -0.443462
v -0.587877 3.612171 -0.339411
v -0.318157 3.404069 -0.183688
v -0.183688 5.177917 -0.318157
v -0.339411 4.969816 -0.587878
v -0.443462 4.658369 -0.768099
v -0.480000 4.290993 -0.831384
v -0.443462 3.923617 -0.768099
v -0.339411 3.612171 -0.587878
v -0.183688 3.404069 -0.318157
v 0.000000 5.177917 -0.367376
v 0.000000 4.290993 -0.960000
v 0.000000 3.923617 -0.886924
v -0.000000 3.404069 -0.367376
v 0.285408 3.308325 -0.285408
v 0.285408 3.308325 0.285408
v -0.285408 3.308325 -0.285408
v -0.285408 3.308325 0.285408
v -0.864571 0.125395 0.000000
v 0.864571 0.125395 0.000000
v 0.000000 0.125395 -0.864571
v 0.000000 0.125395 0.864571
vt 0.750000 0.125000
vt 0.750000 0.250000
vt 0.666667 0.250000
vt 0.666667 0.125000
vt 0.750000 0.375000
vt 0.750000 0.500000
vt 0.666667 0.500000
vt 0.666667 0.375000
vt 0.750000 0.625000
vt 0.750000 0.750000
vt 0.666667 0.750000
vt 0.666667 0.625000
vt 0.750000 0.875000
vt 0.708333 1.000000
vt 0.666667 0.875000
vt 0.708333 0.000000
vt 0.625000 1.000000
vt 0.583333 0.875000
vt 0.625000 0.000000
vt 0.583333 0.125000
vt 0.583333 0.375000
vt 0.583333 0.250000
vt 0.583333 0.625000
vt 0.583333 0.500000
vt 0.583333 0.750000
vt 0.500000 0.375000
vt 0.500000 0.250000
vt 0.500000 0.625000
vt 0.500000 0.500000
vt 0.500000 0.875000
vt 0.500000 0.750000
vt 0.500000 0.125000
vt 0.541667 1.000000
vt 0.541667 0.000000
vt 0.416667 0.250000
vt 0.416667 0.125000
vt 0.416667 0.500000
vt 0.416667 0.375000
vt 0.416667 0.750000
vt 0.416667 0.625000
vt 0.458333 1.000000
vt 0.416667 0.875000
vt 0.458333 0.000000
vt 0.333333 0.500000
vt 0.333333 0.375000
vt 0.333333 0.750000
vt 0.333333 0.625000
vt 0.375000 1.000000
vt 0.333333 0.875000
vt 0.375000 0.000000
vt 0.333333 0.125000
vt 0.333333 0.250000
vt 0.291667 0.000000
vt 0.250000 0.125000
vt 0.250000 0.375000
vt 0.250000 0.250000
vt 0.250000 0.625000
vt 0.250000 0.500000
vt 0.250000 0.875000
vt 0.250000 0.750000
vt 0.291667 1.000000
vt 0.166667 0.625000
vt 0.166667 0.500000
vt 0.166667 0.875000
vt 0.166667 0.750000
vt 0.166667 0.250000
vt 0.166667 0.125000
vt 0.166667 0.375000
vt 0.208333 1.000000
vt 0.208333 0.000000
vt 0.083333 0.250000
vt 0.083333 0.125000
vt 0.083333 0.500000
vt 0.083333 0.375000
vt 0.083333 0.750000
vt 0.083333 0.625000
vt 0.125000 1.000000
vt 0.083333 0.875000
vt 0.125000 0.000000
vt 0.000000 0.750000
vt 0.000000 0.625000
vt 0.041667 1.000000
vt 0.000000 0.875000
vt 0.041667 0.000000
vt 0.000000 0.125000
vt 0.000000 0.375000
vt 0.000000 0.250000
vt 0.000000 0.500000
vt 0.958333 0.000000
vt 1.000000 0.125000
vt 0.916667 0.125000
vt 1.000000 0.250000
vt 1.000000 0.375000
vt 0.916667 0.375000
vt 0.916667 0.250000
vt 1.000000 0.500000
vt 1.000000 0.625000
vt 0.916667 0.625000
vt 0.916667 0.500000
vt 1.000000 0.750000
vt 1.000000 0.875000
vt 0.916667 0.875000
vt 0.916667 0.750000
vt 0.958333 1.000000
vt 0.833333 0.875000
vt 0.833333 0.750000
vt 0.833333 0.250000
vt 0.833333 0.125000
vt 0.833333 0.500000
vt 0.833333 0.375000
vt 0.833333 0.625000
vt 0.875000 1.000000
vt 0.875000 0.000000
vt 0.791667 1.000000
vt 0.791667 0.000000
vt 0.875000 0.666667
vt 0.791667 0.750000
vt 0.791667 0.666667
vt 0.625000 0.166667
vt 0.375000 0.250000
vt 0.375000 0.166667
vt 0.625000 0.666667
vt 0.375000 0.750000
vt 0.375000 0.666667
vt 0.625000 0.416667
vt 0.375000 0.500000
vt 0.375000 0.416667
vt 0.625000 0.833333
vt 0.625000 0.750000
vt 0.625000 0.333333
vt 0.625000 0.250000
vt 0.625000 0.583333
vt 0.625000 0.500000
vt 0.625000 0.083333
vt 0.375000 0.000000
vt 0.625000 0.000000
vt 0.708333 0.750000
vt 0.708333 0.500000
vt 0.791667 0.500000
vt 0.875000 0.583333
vt 0.791667 0.583333
vt 0.875000 0.750000
vt 0.125000 0.500000
vt 0.208333 0.583333
vt 0.125000 0.583333
vt 0.291667 0.666667
vt 0.291667 0.750000
vt 0.375000 0.916667
vt 0.375000 0.833333
vt 0.291667 0.583333
vt 0.375000 0.583333
vt 0.208333 0.500000
vt 0.291667 0.583333
vt 0.250000 0.583333
vt 0.208333 0.583333
vt 0.208333 0.666667
vt 0.208333 0.625000
vt 0.208333 0.666667
vt 0.625000 0.916667
vt 0.375000 1.000000
vt 0.125000 0.750000
vt 0.208333 0.750000
vt 0.250000 0.666667
vt 0.291667 0.666667
vt 0.125000 0.666667
vt 0.291667 0.625000
vt 0.375000 0.083333
vt 0.708333 0.666667
vt 0.375000 0.333333
vt 0.708333 0.583333
vt 0.875000 0.500000
vt 0.708333 0.666667
vt 0.375000 0.833333
vt 0.208333 0.750000
vt 0.375000 0.916667
vt 0.791667 0.666667
vt 0.791667 0.583333
vt 0.708333 0.583333
vt 0.291667 0.500000
vt 0.625000 1.000000
vt 0.291667 0.750000
vn 0.1472 -0.8224 -0.5495
vn 0.2542 -0.1887 -0.9486
vn 0.2175 0.5423 -0.8116
vn 0.0522 0.9794 -0.1948
vn 0.0522 -0.9794 -0.1948
vn 0.2175 -0.5423 -0.8116
vn 0.2542 0.1887 -0.9486
vn 0.1472 0.8224 -0.5495
vn 0.1426 0.9794 -0.1426
vn 0.1426 -0.9794 -0.1426
vn 0.5941 -0.5423 -0.5941
vn 0.6944 0.1887 -0.6944
vn 0.4023 0.8224 -0.4023
vn 0.4023 -0.8224 -0.4023
vn 0.6944 -0.1887 -0.6944
vn 0.5941 0.5423 -0.5941
vn 0.8116 -0.5423 -0.2175
vn 0.9486 0.1887 -0.2542
vn 0.5495 0.8224 -0.1472
vn 0.5495 -0.8224 -0.1472
vn 0.9486 -0.1887 -0.2542
vn 0.8116 0.5423 -0.2175
vn 0.1948 0.9794 -0.0522
vn 0.1948 -0.9794 -0.0522
vn 0.5495 -0.8224 0.1472
vn 0.9486 -0.1887 0.2542
vn 0.8116 0.5423 0.2175
vn 0.1948 0.9794 0.0522
vn 0.1948 -0.9794 0.0522
vn 0.8116 -0.5423 0.2175
vn 0.9486 0.1887 0.2542
vn 0.5495 0.8224 0.1472
vn 0.6944 -0.1887 0.6944
vn 0.5941 0.5423 0.5941
vn 0.1426 0.9794 0.1426
vn 0.1426 -0.9794 0.1426
vn 0.5941 -0.5423 0.5941
vn 0.6944 0.1887 0.6944
vn 0.4023 0.8224 0.4023
vn 0.4023 -0.8224 0.4023
vn 0.0522 -0.9794 0.1948
vn 0.2175 -0.5423 0.8116
vn 0.2542 0.1887 0.9486
vn 0.1472 0.8224 0.5495
vn 0.1472 -0.8224 0.5495
vn 0.2542 -0.1887 0.9486
vn 0.2175 0.5423 0.8116
vn 0.0522 0.9794 0.1948
vn -0.2542 0.1887 0.9486
vn -0.1472 0.8224 0.5495
vn -0.1472 -0.8224 0.5495
vn -0.2542 -0.1887 0.9486
vn -0.2175 0.5423 0.8116
vn -0.0522 0.9794 0.1948
vn -0.0522 -0.9794 0.1948
vn -0.2175 -0.5423 0.8116
vn -0.4023 -0.8224 0.4023
vn -0.6944 -0.1887 0.6944
vn -0.5941 0.5423 0.5941
vn -0.1426 0.9794 0.1426
vn -0.1426 -0.9794 0.1426
vn -0.5941 -0.5423 0.5941
vn -0.6944 0.1887 0.6944
vn -0.4023 0.8224 0.4023
vn -0.8116 0.5423 0.2175
vn -0.1948 0.9794 0.0522
vn -0.1948 -0.9794 0.0522
vn -0.8116 -0.5423 0.2175
vn -0.9486 0.1887 0.2542
vn -0.5495 0.8224 0.1472
vn -0.5495 -0.8224 0.1472
vn -0.9486 -0.1887 0.2542
vn -0.1948 -0.9794 -0.0522
vn -0.8116 -0.5423 -0.2175
vn -0.9486 0.1887 -0.2542
vn -0.5495 0.8224 -0.1472
vn -0.5495 -0.8224 -0.1472
vn -0.9486 -0.1887 -0.2542
vn -0.8116 0.5423 -0.2175
vn -0.1948 0.9794 -0.0522
vn -0.4023 0.8224 -0.4023
vn -0.4023 -0.8224 -0.4023
vn -0.6944 -0.1887 -0.6944
vn -0.5941 0.5423 -0.5941
vn -0.1426 0.9794 -0.1426
vn -0.1426 -0.9794 -0.1426
vn -0.5941 -0.5423 -0.5941
vn -0.6944 0.1887 -0.6944
vn -0.1472 -0.8224 -0.5495
vn -0.2542 -0.1887 -0.9486
vn -0.2175 0.5423 -0.8116
vn -0.0522 0.9794 -0.1948
vn -0.0522 -0.9794 -0.1948
vn -0.2175 -0.5423 -0.8116
vn -0.2542 0.1887 -0.9486
vn -0.1472 0.8224 -0.5495
vn -0.5540 0.8141 -0.1740
vn 0.0983 0.8550 0.5092
vn 0.5650 0.6012 -0.5650
vn -0.5540 0.8141 0.1740
vn -0.7560 -0.2996 -0.5820
vn -0.8807 -0.4479 -0.1539
vn 0.5540 0.8141 -0.1740
vn 0.7494 -0.3041 0.5882
vn 0.8807 -0.4479 0.1539
vn -0.0983 0.8550 -0.5092
vn 0.7560 -0.2996 -0.5820
vn 0.2762 -0.4400 -0.8544
vn -0.0983 0.8550 0.5092
vn 0.1664 0.9719 0.1664
vn 0.0983 0.8550 -0.5092
vn -0.1664 0.9719 -0.1664
vn 0.5540 0.8141 0.1740
vn 0.1664 0.9719 -0.1664
vn -0.7494 -0.3041 0.5882
vn -0.1664 0.9719 0.1664
vn 0.5650 0.6012 0.5650
vn -0.6704 -0.4206 -0.6112
vn 0.6704 -0.4206 0.6112
vn 0.2329 0.0687 0.9701
vn -0.2409 -0.7577 0.6065
vn 0.2409 -0.7577 0.6065
vn 0.6704 -0.4206 -0.6112
vn 0.8807 -0.4479 -0.1539
vn -0.2762 -0.4400 -0.8544
vn 0.6349 -0.4400 -0.6349
vn 0.0000 -0.6066 -0.7950
vn -0.6349 -0.4400 -0.6349
vn -0.6704 -0.4206 0.6112
vn -0.7950 -0.6066 0.0000
vn -0.6349 -0.4400 0.6349
vn -0.2329 0.0687 0.9701
vn 0.0000 -0.6066 0.7950
vn 0.6349 -0.4400 0.6349
vn -0.8807 -0.4479 0.1539
vn 0.7950 -0.6066 0.0000
vn -0.5650 0.6012 -0.5650
vn -0.5650 0.6012 0.5650
vn -0.2251 0.9480 -0.2251
vn -0.1749 -0.2952 0.9392
vn 0.1749 -0.2953 0.9392
vn 0.2251 0.9480 -0.2251
vn 0.2251 0.9480 0.2251
vn -0.2251 0.9480 0.2251
usemtl Material
s off
f 126/1/1 43/2/1 50/3/1 51/4/1
f 125/5/2 124/6/2 48/7/2 49/8/2
f 42/9/3 41/10/3 46/11/3 47/12/3
f 123/13/4 44/14/4 45/15/4
f 52/16/5 126/1/5 51/4/5
f 43/2/6 125/5/6 49/8/6 50/3/6
f 124/6/7 42/9/7 47/12/7 48/7/7
f 41/10/8 123/13/8 45/15/8 46/11/8
f 45/15/9 44/17/9 53/18/9
f 52/19/10 51/4/10 59/20/10
f 50/3/11 49/8/11 57/21/11 58/22/11
f 48/7/12 47/12/12 55/23/12 56/24/12
f 46/11/13 45/15/13 53/18/13 54/25/13
f 51/4/14 50/3/14 58/22/14 59/20/14
f 49/8/15 48/7/15 56/24/15 57/21/15
f 47/12/16 46/11/16 54/25/16 55/23/16
f 58/22/17 57/21/17 64/26/17 65/27/17
f 56/24/18 55/23/18 62/28/18 63/29/18
f 54/25/19 53/18/19 60/30/19 61/31/19
f 59/20/20 58/22/20 65/27/20 66/32/20
f 57/21/21 56/24/21 63/29/21 64/26/21
f 55/23/22 54/25/22 61/31/22 62/28/22
f 53/18/23 44/33/23 60/30/23
f 52/34/24 59/20/24 66/32/24
f 66/32/25 65/27/25 72/35/25 73/36/25
f 64/26/26 63/29/26 70/37/26 71/38/26
f 62/28/27 61/31/27 68/39/27 69/40/27
f 60/30/28 44/41/28 67/42/28
f 52/43/29 66/32/29 73/36/29
f 65/27/30 64/26/30 71/38/30 72/35/30
f 63/29/31 62/28/31 69/40/31 70/37/31
f 61/31/32 60/30/32 67/42/32 68/39/32
f 71/38/33 70/37/33 77/44/33 78/45/33
f 69/40/34 68/39/34 75/46/34 76/47/34
f 67/42/35 44/48/35 74/49/35
f 52/50/36 73/36/36 80/51/36
f 72/35/37 71/38/37 78/45/37 79/52/37
f 70/37/38 69/40/38 76/47/38 77/44/38
f 68/39/39 67/42/39 74/49/39 75/46/39
f 73/36/40 72/35/40 79/52/40 80/51/40
f 52/53/41 80/51/41 87/54/41
f 79/52/42 78/45/42 85/55/42 86/56/42
f 77/44/43 76/47/43 83/57/43 84/58/43
f 75/46/44 74/49/44 81/59/44 82/60/44
f 80/51/45 79/52/45 86/56/45 87/54/45
f 78/45/46 77/44/46 84/58/46 85/55/46
f 76/47/47 75/46/47 82/60/47 83/57/47
f 74/49/48 44/61/48 81/59/48
f 84/58/49 83/57/49 90/62/49 91/63/49
f 82/60/50 81/59/50 88/64/50 89/65/50
f 87/54/51 86/56/51 93/66/51 94/67/51
f 85/55/52 84/58/52 91/63/52 92/68/52
f 83/57/53 82/60/53 89/65/53 90/62/53
f 81/59/54 44/69/54 88/64/54
f 52/70/55 87/54/55 94/67/55
f 86/56/56 85/55/56 92/68/56 93/66/56
f 94/67/57 93/66/57 100/71/57 101/72/57
f 92/68/58 91/63/58 98/73/58 99/74/58
f 90/62/59 89/65/59 96/75/59 97/76/59
f 88/64/60 44/77/60 95/78/60
f 52/79/61 94/67/61 101/72/61
f 93/66/62 92/68/62 99/74/62 100/71/62
f 91/63/63 90/62/63 97/76/63 98/73/63
f 89/65/64 88/64/64 95/78/64 96/75/64
f 97/76/65 96/75/65 103/80/65 104/81/65
f 95/78/66 44/82/66 102/83/66
f 52/84/67 101/72/67 108/85/67
f 100/71/68 99/74/68 106/86/68 107/87/68
f 98/73/69 97/76/69 104/81/69 105/88/69
f 96/75/70 95/78/70 102/83/70 103/80/70
f 101/72/71 100/71/71 107/87/71 108/85/71
f 99/74/72 98/73/72 105/88/72 106/86/72
f 52/89/73 108/90/73 115/91/73
f 107/92/74 106/93/74 113/94/74 114/95/74
f 105/96/75 104/97/75 111/98/75 112/99/75
f 103/100/76 102/101/76 109/102/76 110/103/76
f 108/90/77 107/92/77 114/95/77 115/91/77
f 106/93/78 105/96/78 112/99/78 113/94/78
f 104/97/79 103/100/79 110/103/79 111/98/79
f 102/101/80 44/104/80 109/102/80
f 110/103/81 109/102/81 116/105/81 117/106/81
f 115/91/82 114/95/82 121/107/82 122/108/82
f 113/94/83 112/99/83 119/109/83 120/110/83
f 111/98/84 110/103/84 117/106/84 118/111/84
f 109/102/85 44/112/85 116/105/85
f 52/113/86 115/91/86 122/108/86
f 114/95/87 113/94/87 120/110/87 121/107/87
f 112/99/88 111/98/88 118/111/88 119/109/88
f 122/108/89 121/107/89 43/2/89 126/1/89
f 120/110/90 119/109/90 124/6/90 125/5/90
f 118/111/91 117/106/91 41/10/91 42/9/91
f 116/105/92 44/114/92 123/13/92
f 52/115/93 122/108/93 126/1/93
f 121/107/94 120/110/94 125/5/94 43/2/94
f 119/109/95 118/111/95 42/9/95 124/6/95
f 117/106/96 116/105/96 123/13/96 41/10/96
s 1
f 29/116/97 26/117/98 36/118/99
f 30/119/100 6/120/101 9/121/102
f 28/122/103 4/123/104 15/124/105
f 32/125/106 2/126/107 11/127/108
f 25/128/109 4/123/104 3/129/110
f 31/130/111 6/120/101 5/131/112
f 27/132/113 2/126/107 1/133/114
f 29/134/97 8/135/115 7/136/116
f 28/122/103 25/137/109 3/129/110
f 32/138/106 27/132/113 1/133/114
f 31/139/111 30/140/100 35/141/117
f 29/116/97 7/142/116 26/117/98
f 6/143/101 17/144/118 9/145/102
f 20/146/119 4/123/104 14/147/120
f 25/128/109 37/148/121 38/149/122
f 19/150/123 2/126/107 16/151/124
f 12/152/125 19/150/123 17/144/118
f 17/144/118 23/153/126 133/154/127 21/155/128
f 18/156/129 21/155/128 131/157/130 22/158/131
f 26/159/98 8/160/115 37/148/121
f 8/161/115 18/156/129 13/162/132
f 19/150/123 15/124/105 20/146/119
f 18/156/129 14/147/120 13/162/132
f 20/146/119 22/158/131 134/163/133 24/164/134
f 9/145/102 18/156/129 10/165/135
f 19/150/123 24/164/134 132/166/136 23/153/126
f 29/134/97 9/121/102 10/167/135
f 27/132/113 15/124/105 16/151/124
f 28/122/103 34/168/137 25/137/109
f 31/130/111 11/127/108 12/169/125
f 32/138/106 33/170/138 27/132/113
f 34/168/137 26/117/98 25/137/109
f 27/132/113 34/168/137 28/122/103
f 32/138/106 35/141/117 33/170/138
f 31/139/111 5/171/112 30/140/100
f 33/170/138 128/172/139 34/168/137
f 35/141/117 29/116/97 36/118/99
f 39/173/140 4/123/104 38/149/122
f 37/148/121 39/173/140 38/149/122
f 14/147/120 40/174/141 13/162/132
f 4/123/104 39/173/140 14/147/120
f 13/162/132 40/174/141 8/161/115
f 37/148/121 8/161/115 40/175/141
f 34/168/137 130/176/142 36/118/99
f 36/118/99 129/177/143 35/141/117
f 35/141/117 127/178/144 33/170/138
f 127/178/144 130/176/142 128/172/139
f 30/119/100 5/131/112 6/120/101
f 28/122/103 3/129/110 4/123/104
f 32/125/106 1/133/114 2/126/107
f 25/128/109 38/149/122 4/123/104
f 31/130/111 12/169/125 6/120/101
f 27/132/113 16/151/124 2/126/107
f 29/134/97 10/167/135 8/135/115
f 6/143/101 12/152/125 17/144/118
f 20/146/119 15/124/105 4/123/104
f 25/128/109 26/159/98 37/148/121
f 19/150/123 11/179/108 2/126/107
f 12/152/125 11/179/108 19/150/123
f 17/144/118 19/150/123 23/153/126
f 18/156/129 17/144/118 21/155/128
f 26/159/98 7/180/116 8/160/115
f 8/161/115 10/165/135 18/156/129
f 19/150/123 16/151/124 15/124/105
f 18/156/129 20/146/119 14/147/120
f 20/146/119 18/156/129 22/158/131
f 9/145/102 17/144/118 18/156/129
f 19/150/123 20/146/119 24/164/134
f 29/134/97 30/119/100 9/121/102
f 27/132/113 28/122/103 15/124/105
f 31/130/111 32/125/106 11/127/108
f 34/168/137 36/118/99 26/117/98
f 27/132/113 33/170/138 34/168/137
f 32/138/106 31/139/111 35/141/117
f 33/170/138 127/178/144 128/172/139
f 35/141/117 30/140/100 29/116/97
f 37/148/121 40/175/141 39/173/140
f 14/147/120 39/181/140 40/174/141
f 34/168/137 128/172/139 130/176/142
f 36/118/99 130/176/142 129/177/143
f 35/141/117 129/177/143 127/178/144
f 127/178/144 129/177/143 130/176/142
f 22/158/131 131/157/130 21/155/128 133/154/127 23/153/126 132/166/136 24/164/134 134/163/133
